<svg width="42" height="42" viewBox="0 0 42 42" fill="none" xmlns="http://www.w3.org/2000/svg">
<path d="M20.6667 20.6667C17.825 20.6667 15.3924 19.6549 13.3687 17.6312C11.3451 15.6076 10.3333 13.175 10.3333 10.3333C10.3333 7.49167 11.3451 5.05903 13.3687 3.03542C15.3924 1.01181 17.825 0 20.6667 0C23.5083 0 25.941 1.01181 27.9646 3.03542C29.9882 5.05903 31 7.49167 31 10.3333C31 13.175 29.9882 15.6076 27.9646 17.6312C25.941 19.6549 23.5083 20.6667 20.6667 20.6667ZM0 41.3333V34.1C0 32.6361 0.377167 31.2911 1.1315 30.0648C1.88583 28.8386 2.88644 27.9017 4.13333 27.2542C6.80278 25.9194 9.51528 24.9188 12.2708 24.2523C15.0264 23.5858 17.825 23.2517 20.6667 23.25C23.5083 23.2483 26.3069 23.5824 29.0625 24.2523C31.8181 24.9223 34.5306 25.9229 37.2 27.2542C38.4486 27.9 39.4501 28.8369 40.2044 30.0648C40.9587 31.2928 41.3351 32.6378 41.3333 34.1V41.3333H0Z" fill="url(#paint0_linear_2473_1670)"/>
<defs>
<linearGradient id="paint0_linear_2473_1670" x1="2.37037" y1="-1.16789e-06" x2="40.556" y2="19.2922" gradientUnits="userSpaceOnUse">
<stop offset="0.603993" stop-color="#26599F"/>
<stop offset="1" stop-color="#00357D"/>
</linearGradient>
</defs>
</svg>
