<svg width="45" height="55" viewBox="0 0 45 55" fill="none" xmlns="http://www.w3.org/2000/svg">
<path d="M22.5 0L0 10V25C0 38.875 9.6 51.85 22.5 55C35.4 51.85 45 38.875 45 25V10L22.5 0ZM22.5 9.75C23.9834 9.75 25.4334 10.1899 26.6668 11.014C27.9001 11.8381 28.8614 13.0094 29.4291 14.3799C29.9968 15.7503 30.1453 17.2583 29.8559 18.7132C29.5665 20.168 28.8522 21.5044 27.8033 22.5533C26.7544 23.6022 25.418 24.3165 23.9632 24.6059C22.5083 24.8953 21.0003 24.7468 19.6299 24.1791C18.2594 23.6114 17.0881 22.6501 16.264 21.4168C15.4399 20.1834 15 18.7334 15 17.25C15 15.2609 15.7902 13.3532 17.1967 11.9467C18.6032 10.5402 20.5109 9.75 22.5 9.75ZM22.5 29.5C27.5 29.5 37.5 32.225 37.5 37.2C35.8581 39.6753 33.6291 41.7058 31.0118 43.1104C28.3946 44.515 25.4704 45.2501 22.5 45.2501C19.5296 45.2501 16.6054 44.515 13.9882 43.1104C11.3709 41.7058 9.14193 39.6753 7.5 37.2C7.5 32.225 17.5 29.5 22.5 29.5Z" fill="url(#paint0_linear_2608_1128)"/>
<defs>
<linearGradient id="paint0_linear_2608_1128" x1="0" y1="0" x2="45.1682" y2="0.98053" gradientUnits="userSpaceOnUse">
<stop offset="0.011924" stop-color="#26599F"/>
<stop offset="1" stop-color="#03450B"/>
</linearGradient>
</defs>
</svg>
